<svg width="480" height="93" xmlns="http://www.w3.org/2000/svg">
 <style type="text/css">.st0{fill:#512D57;}
	.st1{fill:#7CBAC0;}
	.st2{fill:#27B0AF;}
	.st3{fill:none;stroke:#000000;stroke-width:14;stroke-linecap:round;stroke-linejoin:round;stroke-miterlimit:10;}
	.st4{fill:#909091;}
	.st5{fill:#FFFFFF;}
	.st6{fill:#FED771;}
	.st7{fill:#DE7119;}
	.st8{fill:#F1F3F4;}
	.st9{fill:#186978;}
	.st10{fill:#DEE3E2;}
	.st11{fill:#DC7128;}
	.st12{fill:#054445;}
	.st13{fill:#F7B32A;}
	.st14{fill:#30786C;}</style>

 <g>
  <title>background</title>
  <rect fill="none" id="canvas_background" height="95" width="482" y="-1" x="-1"/>
 </g>
 <g>
  <title>Layer 1</title>
  <g id="svg_10">
   <path id="svg_1" d="m15.538007,15.060895l0,26.9l23.2,0c2.1,0 3.8,0.7 5.2,2.2c1.3,1.5 2,3.2 2,5.1c0,2 -0.7,3.7 -2,5.2c-1.3,1.4 -3.1,2.2 -5.2,2.2l-23.2,0l0,28.4c0,2.1 -0.7,3.9 -2.1,5.3c-1.4,1.4 -3.1,2.1 -5.3,2.1c-2.1,0 -3.9,-0.7 -5.3,-2.1c-1.4,-1.4 -2.1,-3.1 -2.1,-5.3l0,-77.4c0,-1.9 0.7,-3.6 2.1,-5.1c1.4,-1.5 3.1,-2.2 5.3,-2.2l40.9,0c1.9,0 3.6,0.7 5,2.2c1.4,1.5 2.2,3.2 2.2,5.1c0,2.1 -0.7,3.9 -2.2,5.3c-1.4,1.4 -3.1,2.1 -5,2.1l-33.5,0z" class="st12"/>
   <path id="svg_2" d="m104.838007,22.860895c4.3,0.5 8.4,1.7 12.2,3.7c3.8,2 7.1,4.6 9.8,7.7c2.7,3.1 4.9,6.7 6.5,10.7c1.6,4 2.4,8.2 2.4,12.6l0,27.8c0,1.9 -0.7,3.6 -2.2,5c-1.4,1.4 -3.1,2.1 -4.9,2.1c-0.7,0 -1.4,0 -2.2,-0.1c-0.8,-0.1 -1.6,-0.4 -2.4,-0.8c-0.8,-0.4 -1.5,-1 -2.1,-1.8c-0.6,-0.8 -1,-1.8 -1.1,-3.2c-0.5,0.2 -1.3,0.6 -2.6,1.3c-1.2,0.7 -2.2,1.2 -2.7,1.4c-1.1,0.5 -2.2,0.9 -3.3,1.3c-1.2,0.4 -2.4,0.8 -3.6,1.2c-2.4,0.5 -5,0.7 -7.8,0.7c-7.2,0 -13.6,-1.9 -19.3,-5.8c-5.7,-3.9 -9.9,-8.9 -12.7,-15.1c-1,-2.1 -1.7,-4.3 -2.2,-6.7c-0.5,-2.4 -0.8,-4.8 -0.8,-7.3c0,-2.5 0.3,-4.9 0.8,-7.2c0.5,-2.3 1.3,-4.6 2.2,-6.8c2.8,-6.2 7,-11.3 12.7,-15.1c5.7,-3.8 12.1,-5.8 19.3,-5.8c0.8,0 1.4,0 2,0s1.2,0.1 2,0.2zm-4.2,55.5c2.8,0 5.4,-0.5 8,-1.6c2.5,-1.1 4.8,-2.5 6.6,-4.4c1.9,-1.9 3.4,-4.1 4.5,-6.6c1.1,-2.5 1.7,-5.2 1.7,-8.2c0,-2.7 -0.6,-5.3 -1.7,-7.9c-1.1,-2.5 -2.6,-4.8 -4.5,-6.6c-1.9,-1.9 -4.1,-3.4 -6.6,-4.5c-2.5,-1.2 -5.1,-1.7 -7.9,-1.7c-2.8,0 -5.4,0.6 -7.9,1.7c-2.4,1.1 -4.6,2.6 -6.6,4.5c-1.9,1.9 -3.4,4.1 -4.5,6.6c-1.1,2.5 -1.7,5.1 -1.7,7.9c0,2.9 0.6,5.6 1.7,8.1c1.2,2.5 2.7,4.7 4.7,6.6c2,1.9 4.2,3.4 6.6,4.5c2.5,1 5,1.6 7.6,1.6z" class="st13"/>
   <path id="svg_3" d="m161.838007,0.560895c0.9,-0.1 1.7,0 2.6,0.4c0.9,0.4 1.6,0.9 2.2,1.7c0.6,0.7 1.1,1.5 1.5,2.4c0.4,0.9 0.6,1.8 0.6,2.7l0,21.3c3.6,-2.5 7.3,-4.2 11,-5c3.7,-0.9 6.9,-1.3 9.6,-1.3c4.5,0 8.9,0.9 13.2,2.6c4.3,1.7 8.2,4.3 11.7,7.6l0,-0.1c3.4,3.5 5.9,7.2 7.6,11.1c1.7,3.9 2.5,8.5 2.5,13.7c0,4.8 -0.9,9.3 -2.8,13.5c-1.9,4.2 -4.4,7.9 -7.6,11.1c-3.2,3.2 -6.9,5.7 -11.1,7.5c-4.2,1.8 -8.7,2.7 -13.4,2.7c-4.6,0 -9,-0.9 -13.2,-2.8c-4.2,-1.9 -7.9,-4.4 -11.2,-7.6c-3.3,-3.2 -5.9,-6.9 -7.8,-11.1c-1.9,-4.2 -2.9,-8.7 -2.9,-13.4l0,-50.6c0,-1.6 0.7,-3.1 2.2,-4.5c1.4,-1.4 3,-2 4.6,-1.9l0.7,0zm6.9,57c0,2.9 0.6,5.6 1.7,8.1c1.1,2.5 2.6,4.7 4.5,6.6c1.9,1.9 4.1,3.4 6.6,4.5c2.5,1.1 5.1,1.7 7.9,1.7c2.8,0 5.4,-0.6 8,-1.7c2.5,-1.1 4.8,-2.6 6.6,-4.5c1.9,-1.9 3.4,-4.1 4.5,-6.6c1.1,-2.5 1.7,-5.2 1.7,-8.1c0,-2.8 -0.6,-5.4 -1.7,-8c-1.1,-2.5 -2.6,-4.8 -4.5,-6.6c-1.9,-1.9 -4.1,-3.4 -6.6,-4.5c-2.5,-1.1 -5.2,-1.7 -8,-1.7c-2.8,0 -5.4,0.6 -7.9,1.7c-2.5,1.2 -4.7,2.7 -6.6,4.7c-1.9,2 -3.4,4.2 -4.5,6.7c-1.1,2.6 -1.7,5.1 -1.7,7.7z" class="st13"/>
   <path id="svg_4" d="m249.138007,0.560895c0.9,-0.1 1.7,0 2.6,0.4c0.9,0.4 1.6,0.9 2.2,1.7c0.6,0.7 1.1,1.5 1.5,2.4c0.4,0.9 0.6,1.8 0.6,2.7l0,21.3c3.6,-2.5 7.3,-4.2 11,-5c3.7,-0.9 6.9,-1.3 9.6,-1.3c4.5,0 8.9,0.9 13.2,2.6c4.3,1.7 8.2,4.3 11.7,7.6l0,-0.1c3.4,3.5 5.9,7.2 7.6,11.1c1.7,3.9 2.5,8.5 2.5,13.7c0,4.8 -0.9,9.3 -2.8,13.5c-1.9,4.2 -4.4,7.9 -7.6,11.1c-3.2,3.2 -6.9,5.7 -11.1,7.5c-4.2,1.8 -8.7,2.7 -13.4,2.7c-4.6,0 -9,-0.9 -13.2,-2.8c-4.2,-1.9 -7.9,-4.4 -11.2,-7.6c-3.3,-3.2 -5.9,-6.9 -7.8,-11.1c-1.9,-4.2 -2.9,-8.7 -2.9,-13.4l0,-50.6c0,-1.6 0.7,-3.1 2.2,-4.5c1.4,-1.4 3,-2 4.6,-1.9l0.7,0zm6.9,57c0,2.9 0.6,5.6 1.7,8.1c1.1,2.5 2.6,4.7 4.5,6.6c1.9,1.9 4.1,3.4 6.6,4.5c2.5,1.1 5.1,1.7 7.9,1.7c2.8,0 5.4,-0.6 8,-1.7c2.5,-1.1 4.8,-2.6 6.6,-4.5c1.9,-1.9 3.4,-4.1 4.5,-6.6c1.1,-2.5 1.7,-5.2 1.7,-8.1c0,-2.8 -0.6,-5.4 -1.7,-8c-1.1,-2.5 -2.6,-4.8 -4.5,-6.6c-1.9,-1.9 -4.1,-3.4 -6.6,-4.5c-2.5,-1.1 -5.2,-1.7 -8,-1.7c-2.8,0 -5.4,0.6 -7.9,1.7c-2.5,1.2 -4.7,2.7 -6.6,4.7c-1.9,2 -3.4,4.2 -4.5,6.7c-1.1,2.6 -1.7,5.1 -1.7,7.7z" class="st13"/>
   <path id="svg_5" d="m335.738007,92.560895c-1.8,0 -3.4,-0.7 -4.7,-2c-1.3,-1.3 -2.1,-3 -2.4,-4.9l0,-29c0.1,-4.7 1.1,-9.1 3,-13.1c1.9,-4 4.4,-7.6 7.6,-10.6c3.2,-3 6.8,-5.4 11,-7.2c4.2,-1.8 8.6,-2.8 13.3,-3c1.8,0.1 3.4,0.9 4.8,2.3c1.3,1.4 2.2,3 2.4,4.8c-0.2,1.8 -1,3.4 -2.3,4.8c-1.3,1.4 -3,2.1 -4.9,2.2c-2.8,0 -5.4,0.5 -7.9,1.6c-2.5,1.1 -4.7,2.5 -6.6,4.4c-1.9,1.9 -3.4,4.1 -4.5,6.6c-1.1,2.5 -1.7,5.2 -1.7,8.2l0,28.7c-0.3,1.6 -1.1,3.1 -2.4,4.3c-1.2,1.3 -2.8,1.9 -4.7,1.9z" class="st13"/>
   <path id="svg_6" d="m403.038007,7.860895c0,2.1 -0.7,3.9 -2.2,5.4c-1.4,1.5 -3.2,2.2 -5.2,2.2c-2.1,0 -3.9,-0.7 -5.4,-2.2c-1.5,-1.5 -2.2,-3.3 -2.2,-5.4c0,-2 0.7,-3.8 2.2,-5.3c1.5,-1.5 3.3,-2.2 5.4,-2.2c2,0 3.7,0.7 5.2,2.2c1.5,1.6 2.2,3.3 2.2,5.3zm-7.4,84.6c-2.1,0 -3.9,-0.7 -5.4,-2.2c-1.5,-1.4 -2.2,-3.3 -2.2,-5.5l0,-54.1c0,-2.1 0.7,-3.9 2.2,-5.3c1.5,-1.4 3.3,-2.2 5.4,-2.2c1.9,0 3.6,0.7 5.1,2.2c1.5,1.4 2.2,3.2 2.2,5.3l0,54.2c0,2.2 -0.7,4 -2.2,5.5c-1.4,1.4 -3.2,2.1 -5.1,2.1z" class="st13"/>
   <path id="svg_7" d="m477.038007,79.960895c0.6,0.8 1.1,1.6 1.4,2.5c0.4,0.9 0.6,1.8 0.6,2.7c0,1 -0.1,1.9 -0.4,2.8c-0.3,0.9 -0.8,1.8 -1.6,2.5l0,-0.1c-1.7,1.5 -3.6,2.3 -5.5,2.3c-1.9,0 -3.6,-0.7 -5,-2.2l-29,-29l0,23.6c0,1.9 -0.7,3.6 -2.2,5.1c-1.5,1.5 -3.2,2.2 -5.3,2.2c-1.9,0 -3.7,-0.7 -5.2,-2.2c-1.5,-1.4 -2.3,-3.2 -2.3,-5.2l0,-77.4c0,-1.9 0.7,-3.6 2.2,-5.1c1.5,-1.5 3.2,-2.2 5.3,-2.2c2.1,0 3.9,0.7 5.3,2.2c1.4,1.4 2.2,3.2 2.2,5.2l0,45l29,-29c1.3,-1.3 3,-2 5,-2c1,0 1.9,0.2 2.9,0.5c1,0.3 1.8,0.9 2.6,1.7l0,-0.1c0.8,0.8 1.3,1.6 1.6,2.5c0.3,0.9 0.4,1.8 0.4,2.8c0,2.1 -0.7,3.8 -2,5.2l-22.9,22.9l22.9,22.8z" class="st13"/>
  </g>
 </g>
</svg>